<svg width="25" height="24" viewBox="0 0 25 24" fill="none" xmlns="http://www.w3.org/2000/svg">
<path d="M3.5 12C3.5 13.78 4.02784 15.5201 5.01677 17.0001C6.00571 18.4802 7.41131 19.6337 9.05585 20.3149C10.7004 20.9961 12.51 21.1743 14.2558 20.8271C16.0016 20.4798 17.6053 19.6226 18.864 18.364C20.1226 17.1053 20.9798 15.5016 21.3271 13.7558C21.6743 12.01 21.4961 10.2004 20.8149 8.55585C20.1337 6.91131 18.9802 5.50571 17.5001 4.51677C16.0201 3.52784 14.28 3 12.5 3C9.98395 3.00947 7.56897 3.99122 5.76 5.74L3.5 8" stroke="white" stroke-width="2" stroke-linecap="round" stroke-linejoin="round"/>
<path d="M3.5 3V8H8.5" stroke="white" stroke-width="2" stroke-linecap="round" stroke-linejoin="round"/>
</svg>
