<svg width="24" height="25" viewBox="0 0 24 25" fill="none" xmlns="http://www.w3.org/2000/svg">
        <path d="M2 21.5C2.6 22 3.2 22.5 4.5 22.5C7 22.5 7 20.5 9.5 20.5C10.8 20.5 11.4 21 12 21.5C12.6 22 13.2 22.5 14.5 22.5C17 22.5 17 20.5 19.5 20.5C20.8 20.5 21.4 21 22 21.5" stroke="#FA0050" stroke-width="2" stroke-linecap="round" stroke-linejoin="round"/>
        <path d="M19.38 20.5C20.4557 18.6846 21.0158 16.6101 21 14.5L12 10.5L3 14.5C3 17.4 3.94 19.84 5.81 22.26" stroke="#FA0050" stroke-width="2" stroke-linecap="round" stroke-linejoin="round"/>
        <path d="M19 13.5V7.5C19 6.96957 18.7893 6.46086 18.4142 6.08579C18.0391 5.71071 17.5304 5.5 17 5.5H7C6.46957 5.5 5.96086 5.71071 5.58579 6.08579C5.21071 6.46086 5 6.96957 5 7.5V13.5" stroke="#FA0050" stroke-width="2" stroke-linecap="round" stroke-linejoin="round"/>
        <path d="M12 10.5V14.5" stroke="#FA0050" stroke-width="2" stroke-linecap="round" stroke-linejoin="round"/>
        <path d="M12 2.5V5.5" stroke="#FA0050" stroke-width="2" stroke-linecap="round" stroke-linejoin="round"/>
      </svg>