<svg width="167" height="61" viewBox="0 0 167 61" fill="none" xmlns="http://www.w3.org/2000/svg">
<path d="M18 39.5C18.6 40 19.2 40.5 20.5 40.5C23 40.5 23 38.5 25.5 38.5C26.8 38.5 27.4 39 28 39.5C28.6 40 29.2 40.5 30.5 40.5C33 40.5 33 38.5 35.5 38.5C36.8 38.5 37.4 39 38 39.5" stroke="#FA0050" stroke-width="2" stroke-linecap="round" stroke-linejoin="round"/>
<path d="M35.38 38.5C36.4557 36.6846 37.0158 34.6101 37 32.5L28 28.5L19 32.5C19 35.4 19.94 37.84 21.81 40.26" stroke="#FA0050" stroke-width="2" stroke-linecap="round" stroke-linejoin="round"/>
<path d="M35 31.5V25.5C35 24.9696 34.7893 24.4609 34.4142 24.0858C34.0391 23.7107 33.5304 23.5 33 23.5H23C22.4696 23.5 21.9609 23.7107 21.5858 24.0858C21.2107 24.4609 21 24.9696 21 25.5V31.5" stroke="#FA0050" stroke-width="2" stroke-linecap="round" stroke-linejoin="round"/>
<path d="M28 28.5V32.5" stroke="#FA0050" stroke-width="2" stroke-linecap="round" stroke-linejoin="round"/>
<path d="M28 20.5V23.5" stroke="#FA0050" stroke-width="2" stroke-linecap="round" stroke-linejoin="round"/>
<path d="M57.517 39V21.5455H61.2074V28.7472H68.6989V21.5455H72.3807V39H68.6989V31.7898H61.2074V39H57.517ZM79.0881 39.2472C78.2528 39.2472 77.5085 39.1023 76.8551 38.8125C76.2017 38.517 75.6847 38.0824 75.304 37.5085C74.929 36.929 74.7415 36.2074 74.7415 35.3438C74.7415 34.6165 74.875 34.0057 75.142 33.5114C75.4091 33.017 75.7727 32.6193 76.233 32.3182C76.6932 32.017 77.2159 31.7898 77.8011 31.6364C78.392 31.483 79.0114 31.375 79.6591 31.3125C80.4205 31.233 81.0341 31.1591 81.5 31.0909C81.9659 31.017 82.304 30.9091 82.5142 30.767C82.7244 30.625 82.8295 30.4148 82.8295 30.1364V30.0852C82.8295 29.5455 82.6591 29.1278 82.3182 28.8324C81.983 28.5369 81.5057 28.3892 80.8864 28.3892C80.233 28.3892 79.7131 28.5341 79.3267 28.8239C78.9403 29.108 78.6847 29.4659 78.5597 29.8977L75.2017 29.625C75.3722 28.8295 75.7074 28.142 76.2074 27.5625C76.7074 26.9773 77.3523 26.5284 78.142 26.2159C78.9375 25.8977 79.858 25.7386 80.9034 25.7386C81.6307 25.7386 82.3267 25.8239 82.9915 25.9943C83.6619 26.1648 84.2557 26.429 84.7727 26.7869C85.2955 27.1449 85.7074 27.6051 86.0085 28.1676C86.3097 28.7244 86.4602 29.392 86.4602 30.1705V39H83.017V37.1847H82.9148C82.7045 37.5938 82.4233 37.9545 82.071 38.267C81.7188 38.5739 81.2955 38.8153 80.8011 38.9915C80.3068 39.1619 79.7358 39.2472 79.0881 39.2472ZM80.1278 36.7415C80.6619 36.7415 81.1335 36.6364 81.5426 36.4261C81.9517 36.2102 82.2727 35.9205 82.5057 35.5568C82.7386 35.1932 82.8551 34.7812 82.8551 34.321V32.9318C82.7415 33.0057 82.5852 33.0739 82.3864 33.1364C82.1932 33.1932 81.9744 33.2472 81.7301 33.2983C81.4858 33.3437 81.2415 33.3864 80.9972 33.4261C80.7528 33.4602 80.5312 33.4915 80.3324 33.5199C79.9063 33.5824 79.5341 33.6818 79.2159 33.8182C78.8977 33.9545 78.6506 34.1392 78.4744 34.3722C78.2983 34.5994 78.2102 34.8835 78.2102 35.2244C78.2102 35.7188 78.3892 36.0966 78.7472 36.358C79.1108 36.6136 79.571 36.7415 80.1278 36.7415ZM89.277 39V25.9091H92.7969V28.1932H92.9332C93.1719 27.3807 93.5724 26.767 94.1349 26.3523C94.6974 25.9318 95.3452 25.7216 96.0781 25.7216C96.2599 25.7216 96.456 25.733 96.6662 25.7557C96.8764 25.7784 97.0611 25.8097 97.2202 25.8494V29.071C97.0497 29.0199 96.8139 28.9744 96.5128 28.9347C96.2116 28.8949 95.9361 28.875 95.6861 28.875C95.152 28.875 94.6747 28.9915 94.2543 29.2244C93.8395 29.4517 93.5099 29.7699 93.2656 30.179C93.027 30.5881 92.9077 31.0597 92.9077 31.5938V39H89.277ZM99.1655 39V21.5455H102.796V28.108H102.907C103.066 27.7557 103.296 27.3977 103.597 27.0341C103.904 26.6648 104.302 26.358 104.79 26.1136C105.285 25.8636 105.898 25.7386 106.631 25.7386C107.586 25.7386 108.467 25.9886 109.273 26.4886C110.08 26.983 110.725 27.7301 111.208 28.7301C111.691 29.7244 111.933 30.9716 111.933 32.4716C111.933 33.9318 111.697 35.1648 111.225 36.1705C110.759 37.1705 110.123 37.929 109.316 38.446C108.515 38.9574 107.617 39.2131 106.623 39.2131C105.918 39.2131 105.319 39.0966 104.825 38.8636C104.336 38.6307 103.935 38.3381 103.623 37.9858C103.31 37.6278 103.072 37.267 102.907 36.9034H102.745V39H99.1655ZM102.719 32.4545C102.719 33.233 102.827 33.9119 103.043 34.4915C103.259 35.071 103.572 35.5227 103.981 35.8466C104.39 36.1648 104.887 36.3239 105.472 36.3239C106.063 36.3239 106.563 36.1619 106.972 35.8381C107.381 35.5085 107.691 35.054 107.901 34.4744C108.117 33.8892 108.225 33.2159 108.225 32.4545C108.225 31.6989 108.12 31.0341 107.91 30.4602C107.7 29.8864 107.39 29.4375 106.981 29.1136C106.572 28.7898 106.069 28.6278 105.472 28.6278C104.881 28.6278 104.381 28.7841 103.972 29.0966C103.569 29.4091 103.259 29.8523 103.043 30.4261C102.827 31 102.719 31.6761 102.719 32.4545ZM120.27 39.2557C118.946 39.2557 117.801 38.9744 116.835 38.4119C115.875 37.8437 115.134 37.054 114.611 36.0426C114.088 35.0256 113.827 33.8466 113.827 32.5057C113.827 31.1534 114.088 29.9716 114.611 28.9602C115.134 27.9432 115.875 27.1534 116.835 26.5909C117.801 26.0227 118.946 25.7386 120.27 25.7386C121.594 25.7386 122.736 26.0227 123.696 26.5909C124.662 27.1534 125.406 27.9432 125.929 28.9602C126.452 29.9716 126.713 31.1534 126.713 32.5057C126.713 33.8466 126.452 35.0256 125.929 36.0426C125.406 37.054 124.662 37.8437 123.696 38.4119C122.736 38.9744 121.594 39.2557 120.27 39.2557ZM120.287 36.4432C120.889 36.4432 121.392 36.2727 121.795 35.9318C122.199 35.5852 122.503 35.1136 122.707 34.517C122.918 33.9205 123.023 33.2415 123.023 32.4801C123.023 31.7188 122.918 31.0398 122.707 30.4432C122.503 29.8466 122.199 29.375 121.795 29.0284C121.392 28.6818 120.889 28.5085 120.287 28.5085C119.679 28.5085 119.168 28.6818 118.753 29.0284C118.344 29.375 118.034 29.8466 117.824 30.4432C117.619 31.0398 117.517 31.7188 117.517 32.4801C117.517 33.2415 117.619 33.9205 117.824 34.517C118.034 35.1136 118.344 35.5852 118.753 35.9318C119.168 36.2727 119.679 36.4432 120.287 36.4432ZM129.074 39V25.9091H132.594V28.1932H132.73C132.969 27.3807 133.369 26.767 133.932 26.3523C134.494 25.9318 135.142 25.7216 135.875 25.7216C136.057 25.7216 136.253 25.733 136.463 25.7557C136.673 25.7784 136.858 25.8097 137.017 25.8494V29.071C136.847 29.0199 136.611 28.9744 136.31 28.9347C136.009 28.8949 135.733 28.875 135.483 28.875C134.949 28.875 134.472 28.9915 134.051 29.2244C133.636 29.4517 133.307 29.7699 133.062 30.179C132.824 30.5881 132.705 31.0597 132.705 31.5938V39H129.074Z" fill="white"/>
</svg>
